<svg width="197" height="207" viewBox="0 0 197 207" fill="none" xmlns="http://www.w3.org/2000/svg">
<path d="M134.784 41.2595C146.213 41.2595 155.478 32.0236 155.478 20.6301C155.478 9.23654 146.213 0 134.784 0C123.355 0 114.09 9.23654 114.09 20.6301C114.09 32.0236 123.355 41.2595 134.784 41.2595Z" fill="#75D4D0"/>
<path d="M56.6109 80.9702C68.0398 80.9702 77.3049 71.7343 77.3049 60.3408C77.3049 48.9472 68.0398 39.7107 56.6109 39.7107C45.1819 39.7107 35.917 48.9472 35.917 60.3408C35.917 71.7343 45.1819 80.9702 56.6109 80.9702Z" fill="#304861"/>
<path fill-rule="evenodd" clip-rule="evenodd" d="M0 149.794V121.795C0 121.688 0 121.544 0 121.437C0.00359612 121.15 0.0107471 120.827 0.0251316 120.54C0.226514 116.203 1.49593 112.833 3.83701 110.431C6.39385 107.814 10.0691 106.488 14.8627 106.488C14.9023 106.488 14.9454 106.488 14.985 106.488C15.1001 106.488 15.2151 106.488 15.3338 106.488C19.9008 106.595 23.4611 107.886 26.0107 110.431C28.4129 112.833 29.7218 116.167 29.9376 120.504C29.9556 120.791 29.9628 121.114 29.9664 121.437C29.9664 121.544 29.9664 121.688 29.9664 121.795V149.794C29.9664 164.456 41.9055 176.359 56.6136 176.359C71.3181 176.359 83.2608 164.456 83.2608 149.794V149.149C83.2608 144.237 84.5375 140.437 87.0943 137.82C89.6512 135.167 93.33 133.877 98.1236 133.877C102.917 133.877 106.636 135.167 109.272 137.82C111.908 140.437 113.227 144.237 113.227 149.149C113.227 149.22 113.224 149.292 113.22 149.364C113.224 149.507 113.227 149.65 113.227 149.794C113.227 180.947 87.8603 206.221 56.6136 206.221C25.3669 206.221 0 180.947 0 149.794Z" fill="#304861"/>
<path fill-rule="evenodd" clip-rule="evenodd" d="M166.517 190.942V117.952C166.517 103.29 154.575 91.3874 139.87 91.3874C125.162 91.3874 113.223 103.29 113.223 117.952L113.223 149.894C113.223 158.14 106.509 164.843 98.2416 164.843C89.9705 164.843 83.2566 158.14 83.2566 149.894L83.2566 117.952C83.2566 86.7988 108.624 61.5247 139.87 61.5247C171.117 61.5247 196.484 86.7988 196.484 117.952V190.942C196.484 191.05 196.484 191.193 196.484 191.301C196.48 191.587 196.473 191.874 196.459 192.197C196.257 196.499 194.988 199.905 192.647 202.307C190.09 204.924 186.415 206.25 181.621 206.25C181.582 206.25 181.538 206.25 181.499 206.25C181.384 206.25 181.269 206.25 181.15 206.214C176.583 206.142 173.023 204.852 170.473 202.307C168.071 199.905 166.762 196.535 166.546 192.233C166.528 191.946 166.521 191.623 166.517 191.301C166.517 191.193 166.517 191.05 166.517 190.942Z" fill="#75D4D0"/>
</svg>
